# xmcd
# Copyright (C) 1995-1998 Ti Kan
#
# Track frame offsets:
#       150
#       11255
#       43247
#       54770
#       64597
#       78645
#       93277
#       108107
#       128052
#       146017
#       159405
#
# Disc length: 2781 seconds
#
# Revision: 0
# Processed by: cddbd v1.5.2PL0 Copyright (c) Steve Scherf et al.
# Submitted via: CD-Import v1.0
#
DISCID=810adb0b
DTITLE=Doors - The Best Of
DYEAR=1900
DGENRE=
TTITLE0=Break On Through
TTITLE1=Light My Fire
TTITLE2=The Crystal Ship
TTITLE3=People Are Strange
TTITLE4=Strange Days
TTITLE5=Love Me Two Times
TTITLE6=Alabama Song
TTITLE7=Five To One
TTITLE8=Waiting For The Sun
TTITLE9=Spanish Caravan
TTITLE10=When The Music's Over
EXTD=
EXTT0=
EXTT1=
EXTT2=
EXTT3=
EXTT4=
EXTT5=
EXTT6=
EXTT7=
EXTT8=
EXTT9=
EXTT10=
PLAYORDER=
